<?xml version="1.0" encoding="UTF-8"?>
<svg width="606px" height="181px" viewBox="0 0 606 181" version="1.1" xmlns="http://www.w3.org/2000/svg" xmlns:xlink="http://www.w3.org/1999/xlink">
    <title>Logo_habits_design_studio</title>
    <g id="Page-1" stroke="none" stroke-width="1" fill="none" fill-rule="evenodd">
        <g id="Logo_habits_design_studio" fill-rule="nonzero">
            <path d="M309.8,61 C303.6,56.4 296.1,54.1 287.3,54.1 L287.3,54 C294.3,53.3 300.5,51.2 305.9,47.4 C312.8,42.6 316.3,36.2 316.3,28.1 C316.3,18.9 312.8,11.8 305.9,7 C300,2.9 292.3,1 282.8,0.8 C281.4,0.8 280.5,0.7 280.5,0.7 C280.5,0.9 280.5,0.7 280.5,0.9 C284,2 289.3,6.3 290.7,9.3 C292.4,12.9 293.2,19.2 293.2,28.2 C293.2,36.2 292.5,42.2 291,46 C289.5,49.4 285.3,53.1 281,54.3 L281,54.3 C281,54.5 281,54.5 281,54.5 C289.9,57.1 295.1,66.5 295.1,83.3 C295.1,98.4 291.5,107 286.7,110.8 C284.9,112.2 282.4,112.9 282.3,113.2 C282.3,113.2 284.4,113.2 286.9,113.2 C296.6,113.1 304.6,110.7 310.6,105.9 C317.3,100.6 320.7,93.1 320.7,83.5 C320.7,73.8 317.1,66.4 309.8,61 Z" id="Path" fill="#1D1E1C"></path>
            <rect id="Rectangle" fill="#1D1E1C" x="240.5" y="0.7" width="23.4" height="112.4"></rect>
            <rect id="Rectangle" fill="#1D1E1C" x="351.4" y="0.7" width="23.4" height="112.4"></rect>
            <rect id="Rectangle" fill="#1D1E1C" x="445.2" y="0.7" width="23.4" height="112.4"></rect>
            <path d="M183.6,113.1 L209.6,113.1 C209.6,113.1 209.7,113.1 209.7,113.1 L170.9,0.7 L170.9,0.7 L157.1,0.7 L157.1,0.7 L152.4,16.1 L183.6,113.1 Z" id="Path" fill="#1D1E1C"></path>
            <path d="M132.5,85.8 L131.1,85.8 L118.3,113.1 L142.4,113.1 L142.4,111.4 C136.7,105.2 132.5,94.7 132.5,85.8 Z" id="Path" fill="#1D1E1C"></path>
            <path d="M433.6,1.9 C433.6,1.3 433.6,0.7 433.6,0.7 L407.7,0.7 L407.7,29.8 C407.7,29.8 409,29.8 409,29.8 C410.3,15.5 419.8,4.6 433.6,1.9 Z" id="Path" fill="#1D1E1C"></path>
            <path d="M480.3,1.9 C480.3,1.3 480.3,0.7 480.3,0.7 L506.2,0.7 L506.2,29.8 C506.2,29.8 505.1,29.8 505.1,29.8 C503.7,15.5 494.1,4.6 480.3,1.9 Z" id="Path" fill="#1D1E1C"></path>
            <path d="M24.5,45.9 L24.5,0.7 L0.9,0.7 L0.9,113.1 L24.5,113.1 L24.5,82.7 L24.5,63.6 C24.5,60.6 30.1,56.7 32.6,55.3 L32.6,54.1 C30.2,52.5 24.5,48.6 24.5,45.9 Z" id="Path" fill="#1D1E1C"></path>
            <path d="M590.5,55.3 C581.3,50.1 572,45 562.8,39.9 C552.9,33.9 548,26.6 548,18.1 C548,13.1 549.6,8 552.3,5 C555.2,1.8 555.1,1.8 555.1,1.8 L555.1,0.8 C554,1 552.4,1.4 550.2,2.5 C544.3,5.3 539.7,9.5 536.4,15 C533.1,20.5 531.5,26.4 531.5,32.7 C531.5,43.1 536.3,51.8 545.9,58.7 C554.9,63.8 563.8,68.9 572.7,73.8 C582.3,79.9 587.1,87.1 587.1,95.6 C587.1,100.9 585.8,105.3 582.9,108.6 C582.2,109.5 580.3,111.6 580.3,111.6 L580.2,113.1 C581.3,113 584,112.4 585.3,111.8 C591.7,109 596.6,104.8 600.1,99.4 C603.6,93.9 605.4,88 605.4,81.7 C605.3,71.1 600.4,62.3 590.5,55.3 Z" id="Path" fill="#1D1E1C"></path>
            <path d="M574,1 L574,1.9 C574,1.9 575.9,3.2 577.6,4.5 C585,9.8 590.4,16.9 592.4,26.9 C593,29.4 593.2,31.1 593.2,31.1 C593.2,31.1 593.6,31.1 593.8,31.1 C594.6,31.1 595,31.1 595,31.1 L595,0.7 L574,0.7 L574,1 Z" id="Path" fill="#1D1E1C"></path>
            <path d="M555.1,113.1 L555.1,112.2 C555.1,112.2 553.2,110.9 551.5,109.6 C544.1,104.3 538.7,97.2 536.7,87.2 C536.1,84.7 535.9,82.9 535.9,82.9 C535.9,82.9 535.5,82.9 535.3,82.9 C534.5,82.9 534.1,82.9 534.1,82.9 L534.1,113.2 L555.2,113.2 L555.2,113.1 L555.1,113.1 Z" id="Path" fill="#1D1E1C"></path>
            <path d="M63.3,45.9 L63.3,0.7 L87,0.7 L87,113.1 L63.3,113.1 L63.3,82.7 L63.3,63.6 C63.3,60.6 57.7,56.7 55.2,55.3 L55.2,54.1 C57.7,52.5 63.3,48.6 63.3,45.9 Z" id="Path" fill="#1D1E1C"></path>
            <g id="Group" opacity="0" transform="translate(176.000000, 147.000000)" fill="#000000">
                <path d="M0.2,33.3 L0.2,1.5 L11.1,1.5 C21,1.5 27.4,8.4 27.4,17.4 C27.4,26.5 21,33.3 11.1,33.3 L0.2,33.3 Z M23.3,17.4 C23.3,10.5 19,5 11.1,5 L4.2,5 L4.2,29.8 L11.1,29.8 C18.8,29.8 23.3,24.3 23.3,17.4 Z" id="Shape"></path>
                <polygon id="Path" points="40.8 33.3 40.8 1.5 61.7 1.5 61.7 5 44.8 5 44.8 15.3 61.4 15.3 61.4 18.8 44.8 18.8 44.8 29.8 61.7 29.8 61.7 33.3"></polygon>
                <path d="M73.2,28.8 L75.6,25.7 C77.7,28.1 81.1,30.3 85.6,30.3 C91.3,30.3 93.1,27.2 93.1,24.8 C93.1,16.6 74.3,21.2 74.3,9.8 C74.3,4.6 79,0.9 85.3,0.9 C90.1,0.9 93.9,2.6 96.6,5.4 L94.2,8.3 C91.8,5.6 88.5,4.5 85,4.5 C81.2,4.5 78.5,6.6 78.5,9.6 C78.5,16.8 97.3,12.7 97.3,24.5 C97.3,29.1 94.2,33.9 85.6,33.9 C79.9,33.9 75.8,31.8 73.2,28.8 Z" id="Path"></path>
                <polygon id="Path" points="110.2 33.3 110.2 1.5 114.2 1.5 114.2 33.3"></polygon>
                <path d="M127.5,17.4 C127.5,7.5 134.8,0.9 143.9,0.9 C149.6,0.9 153.5,3.4 156.3,6.8 L153.2,8.8 C151.2,6.2 147.8,4.4 144,4.4 C137,4.4 131.7,9.7 131.7,17.3 C131.7,24.8 137,30.2 144,30.2 C147.8,30.2 151,28.4 152.6,26.8 L152.6,20.4 L141.6,20.4 L141.6,17 L156.5,17 L156.5,28.5 C153.5,31.8 149.2,34 144,34 C134.8,33.9 127.5,27.3 127.5,17.4 Z" id="Path"></path>
                <polygon id="Path" points="192.4 33.3 173.8 7.9 173.8 33.3 169.8 33.3 169.8 1.5 173.9 1.5 192.2 26.4 192.2 1.5 196.2 1.5 196.2 33.3"></polygon>
                <path d="M228.5,28.8 L230.9,25.7 C233,28.1 236.4,30.3 240.9,30.3 C246.6,30.3 248.4,27.2 248.4,24.8 C248.4,16.6 229.6,21.2 229.6,9.8 C229.6,4.6 234.3,0.9 240.6,0.9 C245.4,0.9 249.2,2.6 251.9,5.4 L249.5,8.3 C247.1,5.6 243.8,4.5 240.3,4.5 C236.5,4.5 233.8,6.6 233.8,9.6 C233.8,16.8 252.6,12.7 252.6,24.5 C252.6,29.1 249.5,33.9 240.9,33.9 C235.2,33.9 231.1,31.8 228.5,28.8 Z" id="Path"></path>
                <polygon id="Path" points="273.1 33.3 273.1 5 263 5 263 1.5 287.1 1.5 287.1 5 277 5 277 33.3"></polygon>
                <path d="M299.5,21 L299.5,1.5 L303.5,1.5 L303.5,20.9 C303.5,26.7 306.6,30.4 312.5,30.4 C318.4,30.4 321.5,26.7 321.5,20.9 L321.5,1.5 L325.5,1.5 L325.5,20.9 C325.5,28.8 321.1,33.9 312.5,33.9 C303.9,33.9 299.5,28.8 299.5,21 Z" id="Path"></path>
                <path d="M340.1,33.3 L340.1,1.5 L351,1.5 C360.9,1.5 367.3,8.4 367.3,17.4 C367.3,26.5 360.9,33.3 351,33.3 L340.1,33.3 Z M363.2,17.4 C363.2,10.5 358.9,5 351,5 L344.1,5 L344.1,29.8 L351,29.8 C358.8,29.8 363.2,24.3 363.2,17.4 Z" id="Shape"></path>
                <polygon id="Path" points="380.7 33.3 380.7 1.5 384.7 1.5 384.7 33.3"></polygon>
                <path d="M398,17.4 C398,8 404.4,0.9 413.8,0.9 C423.2,0.9 429.6,8 429.6,17.4 C429.6,26.8 423.2,33.9 413.8,33.9 C404.4,33.9 398,26.8 398,17.4 Z M425.5,17.4 C425.5,10 420.9,4.5 413.8,4.5 C406.6,4.5 402.1,10 402.1,17.4 C402.1,24.8 406.6,30.3 413.8,30.3 C420.9,30.4 425.5,24.8 425.5,17.4 Z" id="Shape"></path>
            </g>
        </g>
    </g>
</svg>